<svg width="16" height="16" viewBox="0 0 16 16" fill="none" xmlns="http://www.w3.org/2000/svg">
<path d="M0 1C0 0.447715 0.447715 0 1 0H5C5.55228 0 6 0.447715 6 1V5C6 5.55228 5.55228 6 5 6H1C0.447715 6 0 5.55228 0 5V1Z" fill="#292C37"/>
<path d="M8 0.5C8 0.223858 8.22386 0 8.5 0H15.5C15.7761 0 16 0.223858 16 0.5V1.5C16 1.77614 15.7761 2 15.5 2H8.5C8.22386 2 8 1.77614 8 1.5V0.5Z" fill="#292C37"/>
<path d="M8 4.5C8 4.22386 8.22386 4 8.5 4H11.5C11.7761 4 12 4.22386 12 4.5V5.5C12 5.77614 11.7761 6 11.5 6H8.5C8.22386 6 8 5.77614 8 5.5V4.5Z" fill="#292C37"/>
<path d="M8 10.5C8 10.2239 8.22386 10 8.5 10H15.5C15.7761 10 16 10.2239 16 10.5V11.5C16 11.7761 15.7761 12 15.5 12H8.5C8.22386 12 8 11.7761 8 11.5V10.5Z" fill="#292C37"/>
<path d="M8 14.5C8 14.2239 8.22386 14 8.5 14H11.5C11.7761 14 12 14.2239 12 14.5V15.5C12 15.7761 11.7761 16 11.5 16H8.5C8.22386 16 8 15.7761 8 15.5V14.5Z" fill="#292C37"/>
<path d="M0 11C0 10.4477 0.447715 10 1 10H5C5.55228 10 6 10.4477 6 11V15C6 15.5523 5.55228 16 5 16H1C0.447715 16 0 15.5523 0 15V11Z" fill="#292C37"/>
</svg>
