<svg width="12" height="16" viewBox="0 0 12 16" fill="none" xmlns="http://www.w3.org/2000/svg">
<path fill-rule="evenodd" clip-rule="evenodd" d="M8.29289 0.292893C8.10536 0.105357 7.851 0 7.58579 0H1C0.447715 0 0 0.447715 0 1V15C0 15.5523 0.447715 16 1 16H11C11.5523 16 12 15.5523 12 15V4.41421C12 4.149 11.8946 3.89464 11.7071 3.70711L8.29289 0.292893ZM5.5 3C5.22386 3 5 3.22386 5 3.5V8.5C5 8.77614 5.22386 9 5.5 9H6.5C6.77614 9 7 8.77614 7 8.5V3.5C7 3.22386 6.77614 3 6.5 3H5.5ZM5.5 11C5.22386 11 5 11.2239 5 11.5V12.5C5 12.7761 5.22386 13 5.5 13H6.5C6.77614 13 7 12.7761 7 12.5V11.5C7 11.2239 6.77614 11 6.5 11H5.5Z" fill="#292C37"/>
</svg>
