<svg width="12" height="16" viewBox="0 0 12 16" fill="none" xmlns="http://www.w3.org/2000/svg">
<path fill-rule="evenodd" clip-rule="evenodd" d="M3.70397 0.444546C4.43191 0.150946 5.21211 -0.000111213 6 6.14318e-08C6.78789 -0.000111213 7.56809 0.150946 8.29603 0.444546C9.02398 0.738145 9.68542 1.16854 10.2426 1.71114C10.7998 2.25375 11.2417 2.89793 11.5433 3.60692C11.8448 4.31591 12 5.07581 12 5.84322C12 9.44551 8.20755 13.9986 6.65312 15.7128C6.5714 15.8031 6.4709 15.8754 6.35829 15.9249C6.24568 15.9744 6.12355 16 6 16C5.87645 16 5.75432 15.9744 5.64171 15.9249C5.5291 15.8754 5.4286 15.8031 5.34688 15.7128C3.79245 13.9986 0 9.44551 0 5.84322C0 5.07581 0.155201 4.31591 0.45674 3.60692C0.758279 2.89793 1.20025 2.25375 1.75741 1.71114C2.31458 1.16854 2.97602 0.738145 3.70397 0.444546ZM6 8C7.10457 8 8 7.10457 8 6C8 4.89543 7.10457 4 6 4C4.89543 4 4 4.89543 4 6C4 7.10457 4.89543 8 6 8Z" fill="#292C37"/>
</svg>
