<svg width="12" height="16" viewBox="0 0 12 16" fill="none" xmlns="http://www.w3.org/2000/svg">
<path fill-rule="evenodd" clip-rule="evenodd" d="M7.58579 0C7.851 0 8.10536 0.105357 8.29289 0.292893L11.7071 3.70711C11.8946 3.89464 12 4.149 12 4.41421V15C12 15.5523 11.5523 16 11 16H1C0.447715 16 0 15.5523 0 15V1C0 0.447715 0.447715 0 1 0H7.58579ZM7.60355 1.10355L10.8964 4.39645C10.9628 4.46275 11 4.55268 11 4.64645C11 4.84171 10.8417 5 10.6464 5H7.5C7.22386 5 7 4.77614 7 4.5V1.35355C7 1.15829 7.15829 1 7.35355 1C7.44732 1 7.53725 1.03725 7.60355 1.10355Z" fill="#292C37"/>
</svg>
