<svg width="18" height="20" fill="none" xmlns="http://www.w3.org/2000/svg"><path d="M3.27 4.312c2.127 0 4.725.99 5.651 4.592l.072.196C12.015 4.612 8.397.705 8.541.07c-1.303.427-.193 2.74-1.08 3.396-1.38.746-6.4-.246-7.216 1.723.331-.411 1.568-.877 3.024-.877z" fill="#FAA92E"/><path d="M8.79.012c1.285.2 5.6 4.987 1.128 9.373l-.14.158.002-.001h-.002c5.396.374 6.971-4.712 7.592-4.905-1.02-.914-2.47 1.203-3.479.763-1.336-.823-2.989-5.668-5.102-5.388h.001z" fill="#7DA53A"/><path d="M14.736 15.694c-2.126.005-4.72-.982-5.649-4.582a5.53 5.53 0 01-.079-.21c-3.02 4.487.596 8.394.453 9.028 1.303-.426.194-2.74 1.08-3.394 1.38-.747 6.402.246 7.217-1.724-.332.41-1.567.878-3.022.882z" fill="#2BA0D2"/><path d="M15.43 11.935c.045-1.57 3.414-5.421 2.116-7.11.41 1.061-1.055 5.888-5.47 5.951a7.328 7.328 0 01-2.075-.289l-.215-.042c2.375 4.86 7.568 3.68 8.046 4.123.28-1.342-2.277-1.54-2.402-2.633zM8.2 10.482l.016-.016.009-.009c-5.397-.373-6.972 4.714-7.593 4.906 1.021.915 2.47-1.202 3.479-.762 1.338.822 2.988 5.667 5.101 5.387h-.009c-1.294-.22-5.634-4.965-1.003-9.506z" fill="#2BA0D2"/><path d="M8.207 9.553l.009.003C5.841 4.696.648 5.875.172 5.433c-.282 1.342 2.276 1.539 2.4 2.633-.044 1.57-3.415 5.421-2.116 7.112a.778.778 0 01-.02-.059C.05 13.78 2.09 7.813 8.207 9.553z" fill="#2BA0D2"/><path d="M8.207 9.553C2.089 7.813.049 13.78.437 15.12a.64.64 0 00.019.059c-.098-.62.69-2.838 2.531-4.326 1.25-1.028 2.978-1.711 5.229-1.296l-.01-.003zM3.27 4.312c-1.457 0-2.694.466-3.025.876.627-.507 4.31-1.088 6.865 1.106l.12.105.001.001c.711.636 1.323 1.495 1.74 2.638l-.05-.134C7.995 5.303 5.397 4.31 3.27 4.312zm5.52-4.3c.492.189 1.653 1.499 2.226 3.307.582 1.8.584 4.084-1.235 6.222l.137-.156c4.473-4.386.158-9.173-1.127-9.373zm8.968 14.8c-.14.1-.397.202-.738.282-1.3.319-3.814.356-5.801-1.131-.868-.636-1.628-1.554-2.131-2.851.927 3.6 3.522 4.586 5.648 4.582 1.455-.004 2.69-.471 3.022-.882zm-.212-9.988c.077.49-.422 2-1.551 3.349l-.002.001a5.297 5.297 0 01-.2.23v.002c-.873.965-2.08 1.808-3.647 2.074h-.004a3.005 3.005 0 01-.132.02l-.09.014-.039.005c-.64.08-1.34.065-2.095-.075l.215.043c.753.21 1.444.298 2.075.289 4.415-.064 5.88-4.89 5.47-5.952zM6.7 15.43c-.209-1.546.103-3.304 1.525-4.973l-.008.008-.017.017c-4.631 4.54-.291 9.285 1.003 9.505l.009.001c-.6-.23-2.2-2.124-2.511-4.558z" fill="#9C9DA0"/></svg>