<svg width="16" height="16" viewBox="0 0 16 16" fill="none" xmlns="http://www.w3.org/2000/svg">
<path d="M15.8497 1.60195C16.0501 1.40152 16.0501 1.07656 15.8497 0.876135L15.1239 0.150321C14.9234 -0.0501071 14.5985 -0.0501069 14.3981 0.150321L8 6.54837L1.60195 0.150321C1.40152 -0.0501069 1.07656 -0.0501069 0.876137 0.150321L0.150323 0.876135C-0.0501052 1.07656 -0.0501051 1.40152 0.150323 1.60195L6.54837 8L0.150321 14.3981C-0.050107 14.5985 -0.050107 14.9234 0.150321 15.1239L0.876135 15.8497C1.07656 16.0501 1.40152 16.0501 1.60195 15.8497L8 9.45163L14.3981 15.8497C14.5985 16.0501 14.9234 16.0501 15.1239 15.8497L15.8497 15.1239C16.0501 14.9234 16.0501 14.5985 15.8497 14.3981L9.45163 8L15.8497 1.60195Z" fill="#292C37"/>
</svg>
