<svg width="16" height="12" viewBox="0 0 16 12" fill="none" xmlns="http://www.w3.org/2000/svg">
<path d="M0.0228019 0.786683C0.00786734 0.855418 0 0.926791 0 1V11C0 11.5523 0.447715 12 1 12H15C15.5523 12 16 11.5523 16 11V1C16 0.926788 15.9921 0.855424 15.9772 0.786686C15.8965 1.31639 15.6053 1.79652 15.1625 2.11285L9.16248 6.39856C8.46708 6.89527 7.53292 6.89527 6.83752 6.39856L0.837523 2.11285C0.394661 1.79652 0.103492 1.31638 0.0228019 0.786683Z" fill="#292C37"/>
<path d="M15 0V0.485382C15 0.808333 14.844 1.1114 14.5812 1.29912L8.58124 5.58483C8.23354 5.83319 7.76646 5.83319 7.41876 5.58483L1.41876 1.29912C1.15597 1.1114 1 0.808333 1 0.485382V0H15Z" fill="#292C37"/>
</svg>
