<svg width="16" height="16" viewBox="0 0 16 16" fill="none" xmlns="http://www.w3.org/2000/svg">
<path fill-rule="evenodd" clip-rule="evenodd" d="M0 1C0 0.447715 0.447715 0 1 0H11C11.5523 0 12 0.447715 12 1V4H15C15.5523 4 16 4.44772 16 5V15C16 15.5523 15.5523 16 15 16H5C4.44771 16 4 15.5523 4 15V12H1C0.447715 12 0 11.5523 0 11V1ZM5.5 5C5.22386 5 5 5.22386 5 5.5V14.5C5 14.7761 5.22386 15 5.5 15H14.5C14.7761 15 15 14.7761 15 14.5V5.5C15 5.22386 14.7761 5 14.5 5H5.5Z" fill="#292C37"/>
<path d="M6 6.5C6 6.22386 6.22386 6 6.5 6H13.5C13.7761 6 14 6.22386 14 6.5V7.5C14 7.77614 13.7761 8 13.5 8H6.5C6.22386 8 6 7.77614 6 7.5V6.5Z" fill="#292C37"/>
<path d="M6 9.5C6 9.22386 6.22386 9 6.5 9H13.5C13.7761 9 14 9.22386 14 9.5V10.5C14 10.7761 13.7761 11 13.5 11H6.5C6.22386 11 6 10.7761 6 10.5V9.5Z" fill="#292C37"/>
<path d="M6 12.5C6 12.2239 6.22386 12 6.5 12H9.5C9.77614 12 10 12.2239 10 12.5V13.5C10 13.7761 9.77614 14 9.5 14H6.5C6.22386 14 6 13.7761 6 13.5V12.5Z" fill="#292C37"/>
</svg>
