<svg width="166" height="40" fill="none" xmlns="http://www.w3.org/2000/svg"><path d="M40.847 10.43L34.933 0H22.772l-5.414 9.376H6.095L0 19.804l6.03 10.428h10.821L22.49 40h12.048l6.024-10.435-5.384-9.316 5.67-9.82zM23.762 1.715h10.004l5.065 8.774-4.996 8.653H23.757l-5.028-8.71 5.033-8.717zM1.987 19.812l5.037-8.72h10.07l5.022 8.698-5.043 8.726H7.021l-5.034-8.704zm31.56 18.472H23.481l-5.022-8.7 5.038-8.716h10.055l5.029 8.698-5.034 8.718zM7.784 21.831a.276.276 0 10-.552-.011.276.276 0 00.552.01zm12.162-1.222a3.044 3.044 0 00-2.991-3.089 3.01 3.01 0 00-1.043.169l-.793-2.586.904-.308a.203.203 0 00-.13-.383l-1.09.372a.203.203 0 00-.126.251l.163.534-4.515 1.48-.353-1.258a.9.9 0 00-.186-.327l1.077.016a.202.202 0 00.006-.404l-2.156-.032a.202.202 0 10-.006.404c.356.005.775.13.878.463l.38 1.343-2.198 2.581a.63.63 0 10.334.85l1.778.2a2.394 2.394 0 01-2.38 1.919 2.391 2.391 0 01-2.352-2.423 2.391 2.391 0 013.526-2.06l.434-.508a3.047 3.047 0 00-4.617 2.56 3.046 3.046 0 005.91 1.087 1.067 1.067 0 01.16-1.415 3.036 3.036 0 00-.9-1.807l.448-.525.667 2.183c.118-.063.249-.104.387-.117l-.717-2.345 4.514-1.48-3.194 3.939c.122.062.23.148.317.25l3.02-3.722 1.301 4.247c.084.264.252.407.499.412a.517.517 0 10-.247-.969l-.55-1.796c.262-.093.546-.143.84-.14a2.385 2.385 0 01-.073 4.77 2.385 2.385 0 01-1.396-4.288L15.274 18a3.042 3.042 0 001.588 5.604 3.044 3.044 0 003.084-2.995zm-10.023-.126l-1.777-.2a.645.645 0 00-.072-.184l1.158-1.36c.538.543.759 1.338.691 1.744zm3.2.359l-1.09-.123a.774.774 0 10-.04.402c.023.003 1.081.123 1.105.123a.201.201 0 00.203-.179.201.201 0 00-.178-.223zm20.11 3.471c-.09-.205-.196-.509-.431-.577-.39-.048-.749.178-1.138.134-2.095-.11-4.727-.187-7.232 1.396-2.584 1.862-2.884 4.312-2.729 4.945.23.66.972.716 1.614.809 2.115.184 1.971.32 2.76.425.416.103.958.123 1.384.084.276.494.6 1.81.625 1.726.127-.156.387-.31.588-.319-.002-.236-.404-1.293-.481-1.616.496-.291.983-.615 1.531-.799.884-.174 1.457.051 2.622.376.157.05.324.057.484.1.025.006.034.037.035.061.003.123-.03.242-.062.36-.27 1.034-2.085.593-3.365 1.197-.173.097-.495.338-.495.363a.73.73 0 01.432.472c1.552-1.105 3.528.447 4.248-2.418.007-.043.056-.05.09-.066.517-.17.95-.402 1.063-.974.085-.46-.036-.919-.122-1.367-.17-.783.073-.897-.214-1.988-.023-.309-.806-1.29-1.208-2.324zm-1.56.278c-.818.444-4.502 1.583-5.09.98-.821-.939 3.718-1.67 5.09-.98zm-6.448 1.276c.692.382-1.848 2.658-2.974 3.343.42-1.627 2.405-3.751 2.974-3.343zm-2.177 4.357c.423-.902 2.56-3.117 4.548-3.516.497-.088.9.087.668.528-.64 1.071-4.584 2.927-5.216 2.988zm2.76.11c.619-.944 4.71-2.97 5.473-2.169.543.556-1.694 2.4-5.473 2.168zm4.733-4.09c.211-.762 2.52-1.059 2.747-.381.568 1.05-3.183 1.586-2.747.381zm2.092 3.931c-1.196.463-.824-1.976.962-2.386 1.121-.278.555 1.988-.962 2.386zm-3.412 3.515c0-.3-.235-.542-.526-.542a.533.533 0 00-.524.542c0 .3.234.542.524.542a.534.534 0 00.526-.542zm-.245.698c-.208.073-.431.046-.431.046l.762 2.058s.244-.334.624-.506c-.21-.472-.624-1.846-.624-1.846s-.131.164-.331.248zm-4.794-19.826c-.096.222-.253.43-.268.68-.012.147.127.273.266.288.258-.024.463-.204.682-.324.442-.256.928-.107 1.175.481.13.27-.078.895.124 1.105.13.106.324.07.438-.042.172-.176.276-.412.468-.57.314-.317.865-.243 1.133.052.23.28.193.696.448.96.115.136.363.12.454-.033.184-.238.146-.566.28-.828a.77.77 0 01.64-.47c.712-.026.725.62 1.266.802.155.014.316-.088.343-.248.04-.364-.154-.731-.016-1.088.102-.207.264-.41.494-.476.605-.188.776.299 1.198.286.405-.005.433-.302.265-.583-.15-.32-.397-.664-.261-1.035.117-.281.385-.54.706-.535.244-.003.492.027.734-.012.254-.045.362-.412-.018-.67-.2-.16-.458-.269-.582-.508-.153-.313-.095-.752.208-.957.252-.195.589-.22.851-.397.142-.09.149-.295.074-.428-.231-.263-.842-.27-1.145-.546-.198-.239-.284-.593-.129-.877.15-.315.519-.443.67-.756.087-.21-.138-.44-.352-.403-.28-.008-.556.119-.838.045-.408-.079-.734-.494-.584-1.029.087-.25.268-.468.276-.74.02-.148-.128-.24-.246-.28-.277.003-.482.215-.721.328-.558.324-1.255-.217-1.174-.699.006-.24.046-.487-.02-.722-.057-.163-.283-.248-.426-.143-.223.16-.338.421-.528.614-.335.342-.97.26-1.233-.132-.15-.264-.173-.588-.368-.83-.113-.1-.33-.113-.455.12-.124.202-.129.447-.195.669a.824.824 0 01-1.038.462c-.306-.086-.451-.397-.673-.595-.274-.262-.552-.035-.522.205-.04.632.287 1.132-.513 1.455-.504.188-.874-.324-1.273-.3-.154.004-.26.181-.225.324.056.296.327.501.387.799a.818.818 0 01-.475.952c-.33.161-.7-.022-1.042.067-.171.051-.24.277-.133.416.165.203.407.32.6.493.198.174.33.604.124.986-.274.514-.724.346-1.09.651-.1.073-.097.225-.048.326.279.327.804.179 1.089.494a.833.833 0 01.135.99c-.14.273-.76.594-.674.886.023.12.13.212.25.229.232.028.457-.05.684-.07.568-.04 1.063.507.803 1.16zm8.772-3.94a4.35 4.35 0 11-8.7 0 4.35 4.35 0 018.7 0zm16.042 17.717c2.508 0 4.008-1.42 4.008-4.046 0-1.973-1.085-2.881-1.934-3.276.71-.335 1.736-1.322 1.736-2.882 0-2.408-1.302-3.849-4.046-3.849h-5.941v10.44c0 3.865 2.618 3.613 6.177 3.613zm-3.434-11.605h2.98c1.166 0 1.52.631 1.52 1.5 0 .868-.354 1.54-1.52 1.54h-2.98v-3.04zm0 7.716v-2.21h3.159c1.243 0 1.539.77 1.539 1.915 0 .948-.296 1.737-1.54 1.737-1.848 0-3.158.243-3.158-1.442zm9.393.178c0 2.784 1.145 3.711 4.283 3.711h4.974v-2.447h-4.777c-1.303 0-1.737-.335-1.737-1.46v-1.954h4.362l.198-2.448h-4.56v-3.296h6.514v-2.448h-9.257v10.342zm30.554 3.83c5.191 0 5.586-3.592 5.586-7.796 0-4.303-1.717-6.495-5.586-6.495-3.948 0-5.586 2.192-5.586 6.475 0 4.482.502 7.816 5.586 7.816zm-2.843-7.52c0-2.348.277-4.323 2.843-4.323 2.526 0 2.842 1.975 2.842 4.323 0 2.26.113 5.072-2.842 5.072-2.913 0-2.843-2.608-2.843-5.072zm29.208 7.52c5.192 0 5.587-3.592 5.587-7.796 0-4.303-1.718-6.495-5.587-6.495-3.947 0-5.586 2.192-5.586 6.475 0 4.482.503 7.816 5.586 7.816zm-2.842-7.52c0-2.348.276-4.323 2.842-4.323 2.526 0 2.842 1.975 2.842 4.323 0 2.26.114 5.072-2.842 5.072-2.912 0-2.842-2.608-2.842-5.072zm16.147-6.651h-5.449v14.052h2.745v-4.5h2.704c2.901 0 4.638-1.599 4.638-4.776 0-3.178-1.737-4.776-4.638-4.776zm-.139 7.085h-2.565v-4.638h2.565c1.244 0 2.034.592 2.034 2.328 0 1.738-.79 2.31-2.034 2.31zm16.588-7.085h-10.264v2.447h3.75v11.605h2.745V16.734h3.769v-2.448zm5.257 0c-.671 0-1.146.236-1.559 1.184l-4.5 12.868h2.861l.77-2.427h4.717l.79 2.427h2.862l-4.501-12.868c-.355-1.007-.809-1.184-1.44-1.184zm-1.737 9.316l1.737-5.567 1.658 5.567h-3.395zm-44.81-9.319c-3.684 0-3.92.002-7.034.002V28.34h2.744V16.701h3.882c.928.056 1.246.569 1.269 1.6v10.038h2.744c0-.303.001-9.714-.002-10.001 0-2.505-.928-4.054-3.603-4.054zm-28.966.008c-3.106 0-3.617 1.823-3.617 3.877l-.001 6.256c0 1.124-.443 1.459-1.743 1.459v2.444c3.134 0 4.469-1.124 4.469-3.903v-6.163c.033-1.026.368-1.526 1.337-1.558h3.1v11.624h2.74V14.292c-.716.002-1.158 0-6.285 0zm88.342 0c-3.106 0-3.617 1.823-3.617 3.877l-.001 6.256c0 1.124-.442 1.459-1.744 1.459v2.444c3.135 0 4.47-1.124 4.47-3.903v-6.163c.033-1.026.368-1.526 1.337-1.558h3.1v11.624H166V14.292c-.717.002-1.159 0-6.286 0z" fill="#72BF44"/></svg>