<svg width="16" height="14" viewBox="0 0 16 14" fill="none" xmlns="http://www.w3.org/2000/svg">
<path fill-rule="evenodd" clip-rule="evenodd" d="M0 1C0 0.447715 0.447715 0 1 0H15C15.5523 0 16 0.447715 16 1V11C16 11.5523 15.5523 12 15 12H11.3028C11.1054 12 10.9123 12.0584 10.7481 12.1679L8.5547 13.6302C8.2188 13.8541 7.7812 13.8541 7.4453 13.6302L5.25192 12.1679C5.08766 12.0584 4.89465 12 4.69722 12H1C0.447715 12 0 11.5523 0 11V1ZM3.5 5C3.22386 5 3 5.22386 3 5.5V6.5C3 6.77614 3.22386 7 3.5 7H4.5C4.77614 7 5 6.77614 5 6.5V5.5C5 5.22386 4.77614 5 4.5 5H3.5ZM7 5.5C7 5.22386 7.22386 5 7.5 5H8.5C8.77614 5 9 5.22386 9 5.5V6.5C9 6.77614 8.77614 7 8.5 7H7.5C7.22386 7 7 6.77614 7 6.5V5.5ZM11 5.5C11 5.22386 11.2239 5 11.5 5H12.5C12.7761 5 13 5.22386 13 5.5V6.5C13 6.77614 12.7761 7 12.5 7H11.5C11.2239 7 11 6.77614 11 6.5V5.5Z" fill="#292C37"/>
</svg>
