<svg width="11" height="12" fill="none" xmlns="http://www.w3.org/2000/svg"><path d="M8.435 6.176c.64.203 1.141.544 1.504 1.024.363.47.544 1.05.544 1.744 0 .981-.384 1.739-1.152 2.272-.758.523-1.867.784-3.328.784H.21V.8h5.472c1.365 0 2.41.261 3.136.784.736.523 1.104 1.232 1.104 2.128a2.69 2.69 0 01-.4 1.456 2.689 2.689 0 01-1.088 1.008zM2.787 2.752v2.64h2.576c.64 0 1.125-.112 1.456-.336.33-.224.496-.555.496-.992 0-.437-.166-.763-.496-.976-.33-.224-.816-.336-1.456-.336H2.787zm3.024 7.296c.682 0 1.194-.112 1.536-.336.352-.224.528-.57.528-1.04 0-.928-.688-1.392-2.064-1.392H2.787v2.768H5.81z" fill="#292C37"/></svg>