<svg width="14" height="14" fill="none" xmlns="http://www.w3.org/2000/svg"><path d="M7.144 6.836a.5.5 0 01.709-.705 3.34 3.34 0 01-.004 4.713L5.68 13.017a3.33 3.33 0 01-4.694.02 3.312 3.312 0 01-.034-4.684l2.184-2.215a.5.5 0 11.712.702L1.665 9.055a2.312 2.312 0 00.024 3.269c.912.9 2.38.893 3.284-.014l2.168-2.172a2.34 2.34 0 00.003-3.302zm-.463.306a.5.5 0 01-.71.705 3.343 3.343 0 01.001-4.716l2.089-2.098a3.506 3.506 0 015.042.075 3.283 3.283 0 01-.167 4.64l-2.264 2.107a.5.5 0 11-.681-.732l2.264-2.107a2.283 2.283 0 00.024-3.32 2.506 2.506 0 00-3.51.042L6.682 3.837c-.91.914-.91 2.39 0 3.305z" fill="#94969B"/></svg>