<svg width="19" height="15" fill="none" xmlns="http://www.w3.org/2000/svg"><path d="M2.001 4h.5a.5.5 0 010 1h-2a.5.5 0 010-1h.5V1h-.5a.5.5 0 010-1h1a.5.5 0 01.5.5V4zm-1 3v.5a.5.5 0 11-1 0v-1a.5.5 0 01.5-.5h2a.5.5 0 01.5.5v1a.5.5 0 01-.146.354L1.708 9h.793a.5.5 0 010 1h-2a.5.5 0 01-.354-.854l1.854-1.853V7h-1zm-.5 5a.5.5 0 010-1h2a.5.5 0 01.5.5v1a.5.5 0 01-.146.354L2.708 13l.147.146A.5.5 0 013 13.5v1a.5.5 0 01-.5.5h-2a.5.5 0 010-1H2v-.293l-.354-.353a.5.5 0 010-.708L2 12.293V12H.5zm5 1a.5.5 0 010-1h12a.5.5 0 010 1h-12zm0-5a.5.5 0 010-1h12a.5.5 0 010 1h-12zm0-5a.5.5 0 010-1h12a.5.5 0 010 1h-12z" fill="#94969B"/></svg>