<svg width="24" height="24" fill="none" xmlns="http://www.w3.org/2000/svg"><path d="M4.929 4.929A9.969 9.969 0 002 12h1.932a.5.5 0 01.385.82L.884 16.94A.5.5 0 010 16.618V12c0-3.071 1.172-6.142 3.515-8.485C7.032-.003 12.19-.88 16.525.883c.32.13.392.541.147.785l-.788.789a.516.516 0 01-.538.117A10 10 0 004.929 4.929zm14.142 14.142A9.969 9.969 0 0022 12h-1.933a.5.5 0 01-.384-.82l3.433-4.12a.5.5 0 01.884.321V12c0 3.071-1.172 6.142-3.515 8.485-3.517 3.518-8.675 4.395-13.011 2.632a.478.478 0 01-.147-.786l.788-.788c.14-.14.35-.184.538-.117 3.521 1.247 7.6.462 10.418-2.355z" fill="#F55248"/></svg>